<svg width="273" height="55" viewBox="0 0 273 55" fill="none" xmlns="http://www.w3.org/2000/svg">
<path d="M24.3633 1.8702V6.97536H11.0696C10.4968 6.97536 9.99129 7.12701 9.55323 7.43028C9.11516 7.73356 8.74449 8.15479 8.44121 8.69394C8.13793 9.23311 7.90205 9.8565 7.73357 10.5641C7.59878 11.2381 7.53138 11.9626 7.53138 12.7376C7.53138 14.4899 7.85151 15.9052 8.49176 16.9835C9.13201 18.0618 9.9913 18.601 11.0696 18.601H17.8934C19.2749 18.601 20.4881 18.8874 21.5327 19.4603C22.5773 20.0331 23.4534 20.825 24.1611 21.8359C24.8687 22.8469 25.391 24.06 25.728 25.4753C26.0987 26.8569 26.284 28.3733 26.284 30.0244C26.284 31.8104 26.0818 33.4784 25.6775 35.0285C25.3068 36.5449 24.7676 37.8759 24.06 39.0217C23.3523 40.1674 22.5099 41.0772 21.5327 41.7511C20.5554 42.3914 19.4771 42.7115 18.2977 42.7115H1.41529V37.7075H15.0122C15.6188 37.7075 16.1579 37.539 16.6297 37.202C17.1015 36.8313 17.5058 36.3427 17.8428 35.7361C18.1798 35.1296 18.4325 34.4219 18.601 33.6132C18.7695 32.7708 18.8537 31.8778 18.8537 30.9343C18.8537 29.8222 18.7526 28.8787 18.5505 28.1037C18.382 27.3286 18.0618 26.7221 17.5901 26.284C17.152 25.8122 16.5623 25.4753 15.821 25.2731C15.0796 25.0709 14.1361 24.9698 12.9904 24.9698H8.59285C7.21125 24.9698 5.9813 24.7002 4.90298 24.1611C3.82466 23.5882 2.91483 22.8132 2.17348 21.8359C1.46584 20.825 0.926678 19.6288 0.556006 18.2472C0.185334 16.8656 0 15.3323 0 13.6475C0 12.03 0.185334 10.5136 0.556006 9.0983C0.926678 7.64931 1.44899 6.40251 2.12294 5.35789C2.79689 4.27957 3.60563 3.43715 4.54916 2.83059C5.52638 2.19034 6.6047 1.8702 7.78411 1.8702H24.3633ZM38.6678 0V10.3114H48.8782C50.4283 10.3114 51.7256 10.4799 52.7702 10.8169C53.8485 11.1202 54.7247 11.6593 55.3986 12.4343C56.0726 13.2094 56.5612 14.2372 56.8645 15.5177C57.1677 16.7982 57.3194 18.3988 57.3194 20.3196V42.7115H49.4847V20.8756C49.4847 19.7972 49.4342 18.9043 49.3331 18.1966C49.232 17.489 49.0635 16.933 48.8276 16.5286C48.5917 16.1242 48.2716 15.8378 47.8672 15.6693C47.4966 15.5008 47.0248 15.4166 46.452 15.4166H38.6678V42.7115H30.7826V0H38.6678ZM80.0146 10.3114C81.5647 10.3114 82.8621 10.4631 83.9067 10.7663C84.985 11.0696 85.8611 11.6088 86.5351 12.3838C87.209 13.1252 87.6976 14.1529 88.0009 15.4671C88.3042 16.7476 88.4558 18.3651 88.4558 20.3196V42.7115H68.7428C67.6645 42.7115 66.6704 42.4588 65.7606 41.9533C64.8845 41.4479 64.1094 40.7571 63.4355 39.8809C62.7952 38.9711 62.2898 37.9096 61.9191 36.6965C61.5821 35.4497 61.4136 34.1018 61.4136 32.6528C61.4136 31.2375 61.5821 29.9065 61.9191 28.6597C62.2898 27.4129 62.7952 26.3346 63.4355 25.4247C64.1094 24.4812 64.8845 23.7567 65.7606 23.2512C66.6704 22.7121 67.6645 22.4425 68.7428 22.4425H80.6212V19.6625C80.6212 17.9776 80.3853 16.8487 79.9135 16.2759C79.4755 15.703 78.7004 15.4166 77.5884 15.4166H65.5079V10.3114H80.0146ZM74.2524 27.396C73.2077 27.396 72.3485 27.4802 71.6745 27.6487C71.0006 27.8172 70.4614 28.1037 70.057 28.508C69.6864 28.8787 69.4168 29.3673 69.2483 29.9739C69.1135 30.5804 69.0461 31.3218 69.0461 32.1979C69.0461 35.8709 69.7201 37.7075 71.068 37.7075H80.5706V27.396H74.2524ZM110.848 10.3114C112.297 10.3114 113.56 10.4967 114.639 10.8674C115.717 11.2044 116.593 11.7941 117.267 12.6365C117.975 13.4453 118.497 14.5404 118.834 15.922C119.171 17.2699 119.34 18.938 119.34 20.9261V32.0968C119.34 34.085 119.171 35.753 118.834 37.1009C118.531 38.4488 118.042 39.544 117.368 40.3864C116.694 41.1951 115.818 41.7848 114.74 42.1555C113.662 42.5262 112.364 42.7115 110.848 42.7115H100.081V54.9943H92.2974V10.3114H110.848ZM100.081 37.7075H108.371C108.944 37.7075 109.433 37.6401 109.837 37.5053C110.241 37.3368 110.561 37.0672 110.797 36.6965C111.033 36.2922 111.202 35.7698 111.303 35.1296C111.404 34.4556 111.454 33.5964 111.454 32.5517V20.1679C111.454 19.0222 111.37 18.1292 111.202 17.489C111.033 16.8487 110.73 16.377 110.292 16.0737C109.854 15.7704 109.247 15.5851 108.472 15.5177C107.697 15.4503 106.72 15.4166 105.54 15.4166H100.081V37.7075ZM143.046 10.3114C145.169 10.3114 146.854 11.0865 148.1 12.6365C149.347 14.1529 149.971 16.5791 149.971 19.9152C149.971 23.2512 149.381 25.6437 148.201 27.0927C147.056 28.5417 145.337 29.2662 143.046 29.2662H131.37V32.1474C131.37 33.3605 131.42 34.3377 131.521 35.079C131.656 35.8204 131.875 36.3932 132.178 36.7976C132.482 37.1683 132.886 37.421 133.391 37.5558C133.931 37.6569 134.588 37.7075 135.363 37.7075H147.191V42.7115H131.824C130.342 42.7115 129.078 42.5262 128.034 42.1555C126.989 41.7848 126.13 41.1951 125.456 40.3864C124.782 39.544 124.276 38.4488 123.939 37.1009C123.636 35.753 123.484 34.085 123.484 32.0968V20.8756C123.484 18.9211 123.636 17.2699 123.939 15.922C124.276 14.5741 124.782 13.4958 125.456 12.6871C126.13 11.8447 126.989 11.2381 128.034 10.8674C129.078 10.4967 130.342 10.3114 131.824 10.3114H143.046ZM131.37 24.616H139.861C140.4 24.616 140.855 24.5654 141.226 24.4643C141.63 24.3632 141.951 24.1442 142.186 23.8073C142.422 23.4703 142.591 22.9985 142.692 22.392C142.793 21.7517 142.844 20.9093 142.844 19.8646C142.844 18.8537 142.793 18.0618 142.692 17.489C142.625 16.8824 142.473 16.4275 142.237 16.1242C142.035 15.821 141.732 15.6356 141.327 15.5682C140.956 15.4671 140.468 15.4166 139.861 15.4166H134.453C133.846 15.4166 133.341 15.5008 132.936 15.6693C132.532 15.8378 132.212 16.1242 131.976 16.5286C131.74 16.933 131.572 17.489 131.471 18.1966C131.403 18.8706 131.37 19.7299 131.37 20.7745L131.37 24.616ZM178.782 1.8702V6.97536H165.488C164.915 6.97536 164.41 7.12701 163.972 7.43028C163.534 7.73356 163.163 8.15479 162.86 8.69394C162.557 9.23311 162.321 9.8565 162.152 10.5641C162.017 11.2381 161.95 11.9626 161.95 12.7376C161.95 14.4899 162.27 15.9052 162.91 16.9835C163.551 18.0618 164.41 18.601 165.488 18.601H172.312C173.694 18.601 174.907 18.8874 175.951 19.4603C176.996 20.0331 177.872 20.825 178.58 21.8359C179.287 22.8469 179.81 24.06 180.147 25.4753C180.517 26.8569 180.703 28.3733 180.703 30.0244C180.703 31.8104 180.5 33.4784 180.096 35.0285C179.725 36.5449 179.186 37.8759 178.479 39.0217C177.771 40.1674 176.929 41.0772 175.951 41.7511C174.974 42.3914 173.896 42.7115 172.716 42.7115H155.834V37.7075H169.431C170.037 37.7075 170.577 37.539 171.048 37.202C171.52 36.8313 171.924 36.3427 172.261 35.7361C172.598 35.1296 172.851 34.4219 173.02 33.6132C173.188 32.7708 173.272 31.8778 173.272 30.9343C173.272 29.8222 173.171 28.8787 172.969 28.1037C172.801 27.3286 172.48 26.7221 172.009 26.284C171.571 25.8122 170.981 25.4753 170.24 25.2731C169.498 25.0709 168.555 24.9698 167.409 24.9698H163.011C161.63 24.9698 160.4 24.7002 159.322 24.1611C158.243 23.5882 157.333 22.8132 156.592 21.8359C155.884 20.825 155.345 19.6288 154.975 18.2472C154.604 16.8656 154.419 15.3323 154.419 13.6475C154.419 12.03 154.604 10.5136 154.975 9.0983C155.345 7.64931 155.868 6.40251 156.542 5.35789C157.216 4.27957 158.024 3.43715 158.968 2.83059C159.945 2.19034 161.023 1.8702 162.203 1.8702H178.782ZM234.181 10.3114C235.697 10.3114 236.977 10.4631 238.022 10.7663C239.1 11.0696 239.96 11.6088 240.6 12.3838C241.274 13.1252 241.762 14.1529 242.066 15.4671C242.369 16.7476 242.521 18.3651 242.521 20.3196V42.7115H234.787V20.8756C234.787 19.7972 234.737 18.9043 234.635 18.1966C234.534 17.489 234.349 16.933 234.079 16.5286C233.844 16.1242 233.523 15.8378 233.119 15.6693C232.748 15.5008 232.293 15.4166 231.754 15.4166H223.97V42.7115H216.136V10.3114H234.181ZM273 10.3114V15.4166H258.493C257.887 15.4166 257.381 15.5008 256.977 15.6693C256.573 15.8378 256.252 16.1242 256.017 16.5286C255.814 16.933 255.663 17.489 255.562 18.1966C255.46 18.9043 255.41 19.7972 255.41 20.8756V32.6528C255.41 35.2475 255.966 36.8145 257.078 37.3536C257.617 37.6232 259.386 37.758 262.385 37.758H264.458C265.334 37.7242 266.429 37.7074 267.743 37.7074H273V42.7115H255.865C254.382 42.7115 253.102 42.5262 252.023 42.1555C250.979 41.7848 250.119 41.1951 249.445 40.3864C248.772 39.5439 248.266 38.4488 247.929 37.1009C247.626 35.753 247.474 34.085 247.474 32.0968V20.8756C247.474 18.9211 247.626 17.2699 247.929 15.922C248.266 14.5741 248.772 13.4958 249.445 12.6871C250.119 11.8446 250.979 11.2381 252.023 10.8674C253.102 10.4967 254.382 10.3114 255.865 10.3114H273Z" fill="#F3F3F3"/>
<path d="M192.908 42.6524C192.736 42.4804 192.727 42.429 192.727 41.5753C192.727 41.0823 192.766 40.5506 192.813 40.3938C192.922 40.0277 193.327 39.5561 193.69 39.3709L193.974 39.226L193.994 36.1534L194.015 33.0808C193.926 29.9263 194.068 29.7686 194.183 28.1036V24.6808C194.183 22.4863 194.156 21.2075 194.108 21.1172C194.066 21.0398 192.949 20.1028 191.624 19.035C189.066 16.9733 188.641 16.5781 188.338 15.9794C187.96 15.2343 187.927 14.9497 187.927 12.4173V10.0747L187.246 10.096L186.566 10.1172L186.529 11.8713C186.495 13.4936 186.481 13.6332 186.35 13.7288C186.123 13.8945 185.816 13.9219 184.48 13.8957C182.959 13.8657 182.93 13.8512 182.868 13.0699L182.828 12.5828H181.746C180.739 12.5828 180.654 12.5718 180.523 12.428C180.391 12.2826 180.382 12.1082 180.362 9.55449L180.341 6.83582L180.559 6.61807L180.776 6.40032H181.804H182.831L182.864 5.9476C182.891 5.56768 182.929 5.46708 183.097 5.32199C183.293 5.15343 183.334 5.14908 184.72 5.14908C186.046 5.14908 186.154 5.1589 186.335 5.30162L186.529 5.45418V7.17847V8.90277L187.246 8.90032L187.964 8.89787L188.185 8.51433C188.87 7.32376 190.587 7.32485 191.276 8.51679L191.497 8.89836L197.946 8.90081L204.396 8.90326L204.488 8.68054C204.617 8.37072 205.224 7.8445 205.574 7.73954C205.957 7.62494 206.228 7.6291 206.65 7.75623C207.105 7.8929 207.457 8.16913 207.695 8.57457L207.887 8.90326H208.616H209.345V7.17897V5.45466L209.539 5.30213C209.72 5.15976 209.828 5.14958 211.154 5.14958C212.54 5.14958 212.581 5.15327 212.777 5.32247C212.945 5.46758 212.983 5.56817 213.01 5.94809L213.043 6.4008H214.07H215.098L215.315 6.61854L215.533 6.83629L215.512 9.55498C215.492 12.1087 215.483 12.2831 215.351 12.4285C215.22 12.5725 215.135 12.5834 214.128 12.5834H213.046L213.006 13.0703C212.944 13.8517 212.915 13.8662 211.394 13.8962C210.058 13.9224 209.751 13.8951 209.524 13.7293C209.393 13.6337 209.379 13.4941 209.345 11.8718L209.308 10.1177L208.628 10.0965L207.947 10.0752V12.4178C207.947 14.9921 207.913 15.2661 207.501 16.0392C207.38 16.2666 207.141 16.5973 206.97 16.774C206.799 16.9506 205.575 17.9686 204.25 19.0361C202.925 20.1035 201.807 21.0403 201.766 21.1177C201.718 21.208 201.691 22.4864 201.691 24.6799V28.1013C201.756 28.6381 202.106 32.2707 202.087 36.1539L202.108 39.2264L202.392 39.3714C202.755 39.5566 203.159 40.0282 203.269 40.3943C203.316 40.5511 203.354 41.0828 203.354 41.5758C203.354 42.4294 203.346 42.4808 203.173 42.6529L202.993 42.8336H200.969C198.825 42.8336 198.65 42.8091 198.505 42.4908C198.448 42.3665 198.399 41.1078 198.423 38.3926C198.437 36.7292 198.455 31.8405 197.937 31.8428C197.481 31.8453 197.659 36.6905 197.659 38.3926C197.659 41.1079 197.633 42.3665 197.577 42.4908C197.432 42.8092 197.257 42.8336 195.112 42.8336H193.089L192.908 42.6524ZM196.481 40.993V40.3306H195.387C194.303 40.3306 194.291 40.3331 194.099 40.5247C193.93 40.6936 193.905 40.7791 193.905 41.1871V41.6554H195.193H196.481V40.993ZM202.176 41.1871C202.176 40.7791 202.151 40.6936 201.982 40.5247C201.79 40.3324 201.778 40.3306 200.694 40.3306H199.6V40.993V41.6554H200.888H202.176V41.1871ZM200.513 27.0076H195.361V27.8183H197.937H200.513V27.0076ZM198.418 19.5102C198.761 19.3548 199.095 18.9902 199.158 18.7044C199.182 18.5962 199.225 18.4249 199.254 18.3237C199.29 18.1968 200.07 17.5452 201.768 16.2236L204.23 14.3075L204.249 12.1939L204.269 10.0803H197.937H191.605L191.624 12.1938L191.644 14.3073L194.065 16.1867C195.396 17.2203 196.513 18.1157 196.547 18.1765C196.581 18.2372 196.643 18.4261 196.686 18.5963C196.784 18.991 197.077 19.3381 197.455 19.5102C197.83 19.6804 198.044 19.6804 198.418 19.5102ZM197.532 17.6177C196.625 17.4032 196.253 17.217 195.773 16.7372C195.024 15.9879 194.825 15.3416 194.859 13.7728C194.882 12.7173 194.889 12.676 195.125 12.1961C195.394 11.6512 195.771 11.2917 196.36 11.0201C196.703 10.862 196.827 10.8518 198.689 10.8294L200.656 10.8057L200.842 10.9917L201.028 11.1777V13.0424C201.028 14.4684 201.002 15.0075 200.917 15.334C200.652 16.3511 199.866 17.1743 198.857 17.4925C198.524 17.5974 197.754 17.6702 197.532 17.6177ZM198.618 16.3369C199.077 16.1651 199.486 15.7747 199.698 15.306C199.832 15.0085 199.848 14.823 199.849 13.4843L199.851 11.9939H198.451C196.923 11.9939 196.73 12.0325 196.378 12.4081C196.074 12.7341 196.024 12.9577 196.025 14.0044C196.025 14.8715 196.044 15.014 196.2 15.3428C196.422 15.811 196.784 16.1557 197.245 16.3354C197.714 16.5186 198.132 16.5191 198.619 16.3378L198.618 16.3369ZM193.12 17.884C193.348 17.6016 193.523 17.339 193.509 17.3003C193.495 17.2616 192.858 16.7391 192.092 16.1392C191.173 15.419 190.654 14.9613 190.565 14.7919C190.441 14.5573 190.429 14.3157 190.429 11.9583C190.427 9.20196 190.422 9.15815 190.051 8.88297C189.881 8.7567 189.824 8.74966 189.591 8.82629C189.095 8.99012 189.105 8.92752 189.105 11.9707C189.105 15.6697 189.004 15.4243 191.276 17.259C192.045 17.8801 192.681 18.3903 192.69 18.3928C192.698 18.3952 192.892 18.1663 193.12 17.884ZM206.263 15.8088C206.353 15.6827 206.503 15.3937 206.596 15.1667C206.763 14.7613 206.766 14.7054 206.767 12.0066L206.77 9.25931L206.555 9.04418C206.216 8.70564 205.775 8.77253 205.556 9.19558C205.463 9.37523 205.445 9.83141 205.445 11.973C205.445 14.3174 205.434 14.5573 205.31 14.7919C205.221 14.9613 204.702 15.419 203.783 16.1392C203.017 16.7391 202.379 17.2616 202.365 17.3003C202.352 17.3389 202.527 17.6017 202.755 17.8842L203.17 18.3978L204.635 17.218C205.441 16.5691 206.173 15.935 206.263 15.8088Z" fill="#F3F3F3"/>
</svg>
